<svg width="400" height="100" viewBox="0 0 400 100" fill="none" xmlns="http://www.w3.org/2000/svg">
  <path d="M143.8 23.6h-18.5v52.8h18.5V23.6z" fill="#FFFFFF"/>
  <path d="M143.8 23.6h18.5v52.8h-18.5V23.6z" fill="#FFFFFF"/>
  <path d="M176.2 23.6h-13.9v52.8h13.9V23.6z" fill="#FFFFFF"/>
  <path d="M176.2 23.6h13.9v52.8h-13.9V23.6z" fill="#FFFFFF"/>
  <path d="M203.1 23.6h-13.9v52.8h13.9V23.6z" fill="#FFFFFF"/>
  <path d="M203.1 23.6h13.9v52.8h-13.9V23.6z" fill="#FFFFFF"/>
  <path d="M229.9 23.6H216v52.8h13.9V23.6z" fill="#FFFFFF"/>
  <path d="M229.9 23.6h13.9v52.8h-13.9V23.6z" fill="#FFFFFF"/>
  <path d="M256.8 23.6h-13.9v52.8h13.9V23.6z" fill="#FFFFFF"/>
  <path d="M256.8 23.6h13.9v52.8h-13.9V23.6z" fill="#FFFFFF"/>
  <path d="M283.6 23.6h-13.9v52.8h13.9V23.6z" fill="#FFFFFF"/>
  <path d="M283.6 23.6h13.9v52.8h-13.9V23.6z" fill="#FFFFFF"/>
  <path d="M310.4 23.6h-13.9v52.8h13.9V23.6z" fill="#FFFFFF"/>
  <rect x="698" y="23.6" width="160" height="52.8" rx="5" fill="#FFFFFF"/>
  <path d="M740.3 47.5l24.6-23.9h15.9L755 47.5l25.7 28.9h-15.7l-25.7-28.9h1z" fill="#000080"/>
  <path d="M782.3 47.5l25.7-23.9h15.8l-26 23.9 26 28.9H808l-25.7-28.9z" fill="#000080"/>
  <path d="M841.8 38.5c0-4.5-3.2-7.5-9.1-7.5h-11.3v14.9h11.2c5.8 0 9.2-2.8 9.2-7.4zm-20.4-19.9h11.8c5.1 0 8.2 2.9 8.2 7.3 0 4.3-3 7.3-8.3 7.3h-11.7v-14.6zm34.5 20.7c0 10.4-8.4 16.1-22.4 16.1h-12.1v21h-14v-73.7h26.2c14.2 0 22.4 5.7 22.4 16.1v20.5h-.1z" fill="#000080"/>
  <path d="M310.4 23.6h18.5v52.8h-18.5V23.6z" fill="#FFFFFF"/>
  <path d="M400 50v26.4h-50.8V23.6H400V50z" fill="#FFFFFF"/>
  <path d="M374.2 65.6l12.6-15.2-12.5-15.2-12.5 15.2 12.4 15.2z" fill="#000080"/>
  <path d="M360.6 57.7c-2.2-4.6-2.2-9.8.1-14.4l-6.5-7.9c-5.2 8.8-5.2 19.4-.1 30.1l6.5-7.8z" fill="#000080"/>
  <path d="M387.5 57.7c2.2-4.5 2.2-9.8 0-14.4l6.5-7.9c5.2 8.8 5.2 19.4.1 30.1l-6.6-7.8z" fill="#000080"/>
</svg>
